solid test_asll
   facet normal -1.000000e+00 0.000000e+00 1.224647e-16
      outer loop
         vertex 6.123234e-15 4.000000e+01 5.000000e+01
         vertex 0.000000e+00 4.000000e+01 0.000000e+00
         vertex 6.123234e-15 0.000000e+00 5.000000e+01
      endloop
   endfacet
   facet normal -1.000000e+00 0.000000e+00 1.224647e-16
      outer loop
         vertex 6.123234e-15 0.000000e+00 5.000000e+01
         vertex 0.000000e+00 4.000000e+01 0.000000e+00
         vertex 0.000000e+00 0.000000e+00 0.000000e+00
      endloop
   endfacet
   facet normal 0.000000e+00 0.000000e+00 1.000000e+00
      outer loop
         vertex 5.000000e+01 4.000000e+01 5.000000e+01
         vertex 6.123234e-15 4.000000e+01 5.000000e+01
         vertex 5.000000e+01 0.000000e+00 5.000000e+01
      endloop
   endfacet
   facet normal 0.000000e+00 0.000000e+00 1.000000e+00
      outer loop
         vertex 5.000000e+01 0.000000e+00 5.000000e+01
         vertex 6.123234e-15 4.000000e+01 5.000000e+01
         vertex 6.123234e-15 0.000000e+00 5.000000e+01
      endloop
   endfacet
   facet normal 1.000000e+00 0.000000e+00 -0.000000e+00
      outer loop
         vertex 5.000000e+01 4.000000e+01 0.000000e+00
         vertex 5.000000e+01 4.000000e+01 5.000000e+01
         vertex 5.000000e+01 0.000000e+00 0.000000e+00
      endloop
   endfacet
   facet normal 1.000000e+00 0.000000e+00 0.000000e+00
      outer loop
         vertex 5.000000e+01 0.000000e+00 0.000000e+00
         vertex 5.000000e+01 4.000000e+01 5.000000e+01
         vertex 5.000000e+01 0.000000e+00 5.000000e+01
      endloop
   endfacet
   facet normal 0.000000e+00 0.000000e+00 -1.000000e+00
      outer loop
         vertex 0.000000e+00 4.000000e+01 0.000000e+00
         vertex 5.000000e+01 4.000000e+01 0.000000e+00
         vertex 0.000000e+00 0.000000e+00 0.000000e+00
      endloop
   endfacet
   facet normal 0.000000e+00 0.000000e+00 -1.000000e+00
      outer loop
         vertex 0.000000e+00 0.000000e+00 0.000000e+00
         vertex 5.000000e+01 4.000000e+01 0.000000e+00
         vertex 5.000000e+01 0.000000e+00 0.000000e+00
      endloop
   endfacet
   facet normal 0.000000e+00 1.000000e+00 0.000000e+00
      outer loop
         vertex 5.000000e+01 4.000000e+01 5.000000e+01
         vertex 5.000000e+01 4.000000e+01 0.000000e+00
         vertex 6.123234e-15 4.000000e+01 5.000000e+01
      endloop
   endfacet
   facet normal 0.000000e+00 1.000000e+00 0.000000e+00
      outer loop
         vertex 6.123234e-15 4.000000e+01 5.000000e+01
         vertex 5.000000e+01 4.000000e+01 0.000000e+00
         vertex 0.000000e+00 4.000000e+01 0.000000e+00
      endloop
   endfacet
   facet normal 0.000000e+00 -1.000000e+00 0.000000e+00
      outer loop
         vertex 5.000000e+01 0.000000e+00 0.000000e+00
         vertex 5.000000e+01 0.000000e+00 5.000000e+01
         vertex 0.000000e+00 0.000000e+00 0.000000e+00
      endloop
   endfacet
   facet normal 0.000000e+00 -1.000000e+00 0.000000e+00
      outer loop
         vertex 0.000000e+00 0.000000e+00 0.000000e+00
         vertex 5.000000e+01 0.000000e+00 5.000000e+01
         vertex 6.123234e-15 0.000000e+00 5.000000e+01
      endloop
   endfacet
endsolid